<mxfile host="app.diagrams.net" agent="Mozilla/5.0 (Windows NT 10.0; Win64; x64) AppleWebKit/537.36 (KHTML, like Gecko) Chrome/138.0.0.0 Safari/537.36 Edg/138.0.0.0" version="28.0.7">
  <diagram name="第 1 页" id="LLjCA8FpA9mF2V7TW0wK">
    <mxGraphModel dx="1418" dy="756" grid="1" gridSize="10" guides="1" tooltips="1" connect="1" arrows="1" fold="1" page="1" pageScale="1" pageWidth="3300" pageHeight="4681" math="0" shadow="0">
      <root>
        <mxCell id="0" />
        <mxCell id="1" parent="0" />
        <mxCell id="T-pPKBjrFjKDhYHmC0Yr-2" value="客户端" style="whiteSpace=wrap;html=1;aspect=fixed;fillColor=#09384F;fontColor=#FFFFFF;strokeColor=#006EAF;" parent="1" vertex="1">
          <mxGeometry x="110" y="210" width="60" height="60" as="geometry" />
        </mxCell>
        <mxCell id="T-pPKBjrFjKDhYHmC0Yr-3" value="" style="rounded=0;whiteSpace=wrap;html=1;fillColor=#B6C3D4;strokeColor=#6c8ebf;fontColor=#000000;" parent="1" vertex="1">
          <mxGeometry x="190" y="210" width="430" height="60" as="geometry" />
        </mxCell>
        <mxCell id="T-pPKBjrFjKDhYHmC0Yr-5" value="移动端" style="rounded=0;whiteSpace=wrap;html=1;fillColor=#1ba1e2;fontColor=#000000;strokeColor=#006EAF;" parent="1" vertex="1">
          <mxGeometry x="210" y="217.5" width="170" height="45" as="geometry" />
        </mxCell>
        <mxCell id="T-pPKBjrFjKDhYHmC0Yr-7" value="PC端" style="rounded=0;whiteSpace=wrap;html=1;fillColor=#647687;strokeColor=#314354;fontColor=#000000;" parent="1" vertex="1">
          <mxGeometry x="430" y="217.5" width="170" height="45" as="geometry" />
        </mxCell>
        <mxCell id="jx--1_HKr8451Tq5J7Lc-1" value="网关层" style="whiteSpace=wrap;html=1;aspect=fixed;fillColor=#09384F;fontColor=#FFFFFF;strokeColor=#006EAF;" vertex="1" parent="1">
          <mxGeometry x="110" y="300" width="60" height="60" as="geometry" />
        </mxCell>
        <mxCell id="jx--1_HKr8451Tq5J7Lc-2" value="" style="rounded=0;whiteSpace=wrap;html=1;fillColor=#B6C3D4;strokeColor=#6c8ebf;fontColor=#000000;" vertex="1" parent="1">
          <mxGeometry x="190" y="300" width="430" height="60" as="geometry" />
        </mxCell>
        <mxCell id="jx--1_HKr8451Tq5J7Lc-3" value="nginx" style="rounded=0;whiteSpace=wrap;html=1;fillColor=#1ba1e2;fontColor=#000000;strokeColor=#006EAF;" vertex="1" parent="1">
          <mxGeometry x="320" y="307.5" width="170" height="45" as="geometry" />
        </mxCell>
        <mxCell id="jx--1_HKr8451Tq5J7Lc-19" value="应用层" style="whiteSpace=wrap;html=1;aspect=fixed;fillColor=#09384F;fontColor=#FFFFFF;strokeColor=#006EAF;" vertex="1" parent="1">
          <mxGeometry x="110" y="390" width="60" height="60" as="geometry" />
        </mxCell>
        <mxCell id="jx--1_HKr8451Tq5J7Lc-20" value="" style="rounded=0;whiteSpace=wrap;html=1;fillColor=#B6C3D4;strokeColor=#6c8ebf;fontColor=#000000;" vertex="1" parent="1">
          <mxGeometry x="190" y="390" width="430" height="60" as="geometry" />
        </mxCell>
        <mxCell id="jx--1_HKr8451Tq5J7Lc-21" value="业务组件和模块" style="rounded=0;whiteSpace=wrap;html=1;fillColor=#1ba1e2;fontColor=#000000;strokeColor=#006EAF;" vertex="1" parent="1">
          <mxGeometry x="320" y="397.5" width="170" height="45" as="geometry" />
        </mxCell>
        <mxCell id="jx--1_HKr8451Tq5J7Lc-23" value="" style="shape=flexArrow;endArrow=classic;html=1;rounded=0;fillColor=#d5e8d4;strokeColor=#82b366;fontColor=#000000;" edge="1" parent="1">
          <mxGeometry width="50" height="50" relative="1" as="geometry">
            <mxPoint x="404.5" y="270" as="sourcePoint" />
            <mxPoint x="404.5" y="300" as="targetPoint" />
          </mxGeometry>
        </mxCell>
        <mxCell id="jx--1_HKr8451Tq5J7Lc-24" value="" style="shape=flexArrow;endArrow=classic;html=1;rounded=0;fillColor=#d5e8d4;strokeColor=#82b366;fontColor=#000000;" edge="1" parent="1">
          <mxGeometry width="50" height="50" relative="1" as="geometry">
            <mxPoint x="404.5" y="360" as="sourcePoint" />
            <mxPoint x="404.5" y="390" as="targetPoint" />
          </mxGeometry>
        </mxCell>
        <mxCell id="jx--1_HKr8451Tq5J7Lc-25" value="服务层" style="whiteSpace=wrap;html=1;aspect=fixed;fillColor=#09384F;fontColor=#FFFFFF;strokeColor=#006EAF;" vertex="1" parent="1">
          <mxGeometry x="110" y="480" width="60" height="60" as="geometry" />
        </mxCell>
        <mxCell id="jx--1_HKr8451Tq5J7Lc-26" value="" style="rounded=0;whiteSpace=wrap;html=1;fillColor=#B6C3D4;strokeColor=#6c8ebf;fontColor=#000000;" vertex="1" parent="1">
          <mxGeometry x="190" y="480" width="430" height="60" as="geometry" />
        </mxCell>
        <mxCell id="jx--1_HKr8451Tq5J7Lc-27" value="数据查询和服务接口" style="rounded=0;whiteSpace=wrap;html=1;fillColor=#1ba1e2;fontColor=#000000;strokeColor=#006EAF;" vertex="1" parent="1">
          <mxGeometry x="320" y="487.5" width="170" height="45" as="geometry" />
        </mxCell>
        <mxCell id="jx--1_HKr8451Tq5J7Lc-28" value="存储层" style="whiteSpace=wrap;html=1;aspect=fixed;fillColor=#09384F;fontColor=#FFFFFF;strokeColor=#006EAF;" vertex="1" parent="1">
          <mxGeometry x="110" y="570" width="60" height="60" as="geometry" />
        </mxCell>
        <mxCell id="jx--1_HKr8451Tq5J7Lc-29" value="" style="rounded=0;whiteSpace=wrap;html=1;fillColor=#B6C3D4;strokeColor=#6c8ebf;fontColor=#000000;" vertex="1" parent="1">
          <mxGeometry x="190" y="570" width="430" height="60" as="geometry" />
        </mxCell>
        <mxCell id="jx--1_HKr8451Tq5J7Lc-30" value="数据库MySQL" style="rounded=0;whiteSpace=wrap;html=1;fillColor=#1ba1e2;fontColor=#000000;strokeColor=#006EAF;" vertex="1" parent="1">
          <mxGeometry x="200" y="577.5" width="90" height="45" as="geometry" />
        </mxCell>
        <mxCell id="jx--1_HKr8451Tq5J7Lc-31" value="缓存redis" style="rounded=0;whiteSpace=wrap;html=1;fillColor=#1ba1e2;fontColor=#000000;strokeColor=#006EAF;" vertex="1" parent="1">
          <mxGeometry x="365" y="577.5" width="80" height="45" as="geometry" />
        </mxCell>
        <mxCell id="jx--1_HKr8451Tq5J7Lc-32" value="对象存储minio" style="rounded=0;whiteSpace=wrap;html=1;fillColor=#1ba1e2;fontColor=#000000;strokeColor=#006EAF;" vertex="1" parent="1">
          <mxGeometry x="530" y="577.5" width="80" height="45" as="geometry" />
        </mxCell>
        <mxCell id="jx--1_HKr8451Tq5J7Lc-33" value="数据源" style="whiteSpace=wrap;html=1;aspect=fixed;fillColor=#09384F;fontColor=#FFFFFF;strokeColor=#006EAF;" vertex="1" parent="1">
          <mxGeometry x="110" y="660" width="60" height="60" as="geometry" />
        </mxCell>
        <mxCell id="jx--1_HKr8451Tq5J7Lc-34" value="" style="rounded=0;whiteSpace=wrap;html=1;fillColor=#B6C3D4;strokeColor=#6c8ebf;fontColor=#000000;" vertex="1" parent="1">
          <mxGeometry x="190" y="660" width="430" height="60" as="geometry" />
        </mxCell>
        <mxCell id="jx--1_HKr8451Tq5J7Lc-35" value="MLC系统" style="rounded=0;whiteSpace=wrap;html=1;fillColor=#1ba1e2;fontColor=#000000;strokeColor=#006EAF;" vertex="1" parent="1">
          <mxGeometry x="200" y="667.5" width="90" height="45" as="geometry" />
        </mxCell>
        <mxCell id="jx--1_HKr8451Tq5J7Lc-36" value="用户管理数据" style="rounded=0;whiteSpace=wrap;html=1;fillColor=#1ba1e2;fontColor=#000000;strokeColor=#006EAF;" vertex="1" parent="1">
          <mxGeometry x="365" y="667.5" width="80" height="45" as="geometry" />
        </mxCell>
        <mxCell id="jx--1_HKr8451Tq5J7Lc-37" value="人工维护数据" style="rounded=0;whiteSpace=wrap;html=1;fillColor=#CCCCCC;fontColor=#000000;strokeColor=#006EAF;" vertex="1" parent="1">
          <mxGeometry x="530" y="667.5" width="80" height="45" as="geometry" />
        </mxCell>
        <mxCell id="jx--1_HKr8451Tq5J7Lc-38" value="" style="shape=flexArrow;endArrow=classic;html=1;rounded=0;fillColor=#d5e8d4;strokeColor=#82b366;fontColor=#000000;" edge="1" parent="1">
          <mxGeometry width="50" height="50" relative="1" as="geometry">
            <mxPoint x="404.5" y="660" as="sourcePoint" />
            <mxPoint x="404.5" y="630" as="targetPoint" />
          </mxGeometry>
        </mxCell>
        <mxCell id="jx--1_HKr8451Tq5J7Lc-40" value="" style="shape=flexArrow;endArrow=classic;html=1;rounded=0;fillColor=#d5e8d4;strokeColor=#82b366;fontColor=#000000;" edge="1" parent="1">
          <mxGeometry width="50" height="50" relative="1" as="geometry">
            <mxPoint x="404.5" y="480" as="sourcePoint" />
            <mxPoint x="404.5" y="450" as="targetPoint" />
          </mxGeometry>
        </mxCell>
        <mxCell id="jx--1_HKr8451Tq5J7Lc-41" value="" style="shape=flexArrow;endArrow=classic;html=1;rounded=0;fillColor=#d5e8d4;strokeColor=#82b366;fontColor=#000000;" edge="1" parent="1">
          <mxGeometry width="50" height="50" relative="1" as="geometry">
            <mxPoint x="404.5" y="570" as="sourcePoint" />
            <mxPoint x="404.5" y="540" as="targetPoint" />
          </mxGeometry>
        </mxCell>
        <mxCell id="jx--1_HKr8451Tq5J7Lc-44" value="" style="rounded=0;whiteSpace=wrap;html=1;fillColor=#B6C3D4;strokeColor=#6c8ebf;fontColor=#000000;" vertex="1" parent="1">
          <mxGeometry x="780" y="210" width="310" height="130" as="geometry" />
        </mxCell>
        <mxCell id="jx--1_HKr8451Tq5J7Lc-45" value="业务数据查询与维护" style="rounded=0;whiteSpace=wrap;html=1;fillColor=#1ba1e2;fontColor=#000000;strokeColor=#006EAF;" vertex="1" parent="1">
          <mxGeometry x="850" y="252.5" width="170" height="45" as="geometry" />
        </mxCell>
        <mxCell id="jx--1_HKr8451Tq5J7Lc-46" value="&lt;font style=&quot;font-size: 26px;&quot;&gt;数据应用&lt;/font&gt;" style="rounded=0;whiteSpace=wrap;html=1;fillColor=#09384F;fontColor=#FFFFFF;" vertex="1" parent="1">
          <mxGeometry x="710" y="210" width="50" height="130" as="geometry" />
        </mxCell>
        <mxCell id="jx--1_HKr8451Tq5J7Lc-47" value="" style="rounded=0;whiteSpace=wrap;html=1;fillColor=#B6C3D4;strokeColor=#6c8ebf;fontColor=#000000;" vertex="1" parent="1">
          <mxGeometry x="780" y="390" width="310" height="130" as="geometry" />
        </mxCell>
        <mxCell id="jx--1_HKr8451Tq5J7Lc-48" value="MySQL" style="rounded=0;whiteSpace=wrap;html=1;fillColor=#1ba1e2;fontColor=#000000;strokeColor=#006EAF;" vertex="1" parent="1">
          <mxGeometry x="850" y="397.5" width="170" height="45" as="geometry" />
        </mxCell>
        <mxCell id="jx--1_HKr8451Tq5J7Lc-49" value="&lt;font style=&quot;font-size: 26px;&quot;&gt;数据存储&lt;/font&gt;" style="rounded=0;whiteSpace=wrap;html=1;fillColor=#09384F;fontColor=#FFFFFF;" vertex="1" parent="1">
          <mxGeometry x="710" y="390" width="50" height="130" as="geometry" />
        </mxCell>
        <mxCell id="jx--1_HKr8451Tq5J7Lc-50" value="ETL工具" style="rounded=0;whiteSpace=wrap;html=1;fillColor=#1ba1e2;fontColor=#000000;strokeColor=#006EAF;" vertex="1" parent="1">
          <mxGeometry x="850" y="470" width="170" height="45" as="geometry" />
        </mxCell>
        <mxCell id="jx--1_HKr8451Tq5J7Lc-51" value="" style="rounded=0;whiteSpace=wrap;html=1;fillColor=#B6C3D4;strokeColor=#6c8ebf;fontColor=#000000;" vertex="1" parent="1">
          <mxGeometry x="780" y="570" width="310" height="130" as="geometry" />
        </mxCell>
        <mxCell id="jx--1_HKr8451Tq5J7Lc-53" value="&lt;font style=&quot;font-size: 26px;&quot;&gt;数据源&lt;/font&gt;" style="rounded=0;whiteSpace=wrap;html=1;fillColor=#09384F;fontColor=#FFFFFF;" vertex="1" parent="1">
          <mxGeometry x="710" y="570" width="50" height="130" as="geometry" />
        </mxCell>
        <mxCell id="jx--1_HKr8451Tq5J7Lc-54" value="MLC系统 ORACLE" style="rounded=0;whiteSpace=wrap;html=1;fillColor=#1ba1e2;fontColor=#000000;strokeColor=#006EAF;" vertex="1" parent="1">
          <mxGeometry x="850" y="612.5" width="170" height="45" as="geometry" />
        </mxCell>
        <mxCell id="jx--1_HKr8451Tq5J7Lc-57" value="" style="shape=flexArrow;endArrow=classic;html=1;rounded=0;fillColor=#d5e8d4;strokeColor=#82b366;fontColor=#000000;" edge="1" parent="1">
          <mxGeometry width="50" height="50" relative="1" as="geometry">
            <mxPoint x="934.5" y="390" as="sourcePoint" />
            <mxPoint x="934.5" y="340" as="targetPoint" />
          </mxGeometry>
        </mxCell>
        <mxCell id="jx--1_HKr8451Tq5J7Lc-58" value="" style="shape=flexArrow;endArrow=classic;html=1;rounded=0;fillColor=#d5e8d4;strokeColor=#82b366;fontColor=#000000;" edge="1" parent="1">
          <mxGeometry width="50" height="50" relative="1" as="geometry">
            <mxPoint x="934.5" y="470" as="sourcePoint" />
            <mxPoint x="934.5" y="440" as="targetPoint" />
          </mxGeometry>
        </mxCell>
        <mxCell id="jx--1_HKr8451Tq5J7Lc-59" value="" style="shape=flexArrow;endArrow=classic;html=1;rounded=0;fillColor=#d5e8d4;strokeColor=#82b366;fontColor=#000000;" edge="1" parent="1">
          <mxGeometry width="50" height="50" relative="1" as="geometry">
            <mxPoint x="934.5" y="570" as="sourcePoint" />
            <mxPoint x="934.5" y="520" as="targetPoint" />
          </mxGeometry>
        </mxCell>
        <mxCell id="jx--1_HKr8451Tq5J7Lc-63" style="edgeStyle=orthogonalEdgeStyle;rounded=0;orthogonalLoop=1;jettySize=auto;html=1;fontSize=20;" edge="1" parent="1" source="jx--1_HKr8451Tq5J7Lc-60" target="jx--1_HKr8451Tq5J7Lc-61">
          <mxGeometry relative="1" as="geometry" />
        </mxCell>
        <mxCell id="jx--1_HKr8451Tq5J7Lc-64" style="edgeStyle=orthogonalEdgeStyle;rounded=0;orthogonalLoop=1;jettySize=auto;html=1;fontSize=20;" edge="1" parent="1" source="jx--1_HKr8451Tq5J7Lc-60" target="jx--1_HKr8451Tq5J7Lc-62">
          <mxGeometry relative="1" as="geometry" />
        </mxCell>
        <mxCell id="jx--1_HKr8451Tq5J7Lc-60" value="市域铁路智能运维" style="rounded=0;whiteSpace=wrap;html=1;fillColor=#1ba1e2;fontColor=#000000;strokeColor=#006EAF;fontSize=20;" vertex="1" parent="1">
          <mxGeometry x="275" y="810" width="170" height="45" as="geometry" />
        </mxCell>
        <mxCell id="jx--1_HKr8451Tq5J7Lc-80" style="edgeStyle=orthogonalEdgeStyle;rounded=0;orthogonalLoop=1;jettySize=auto;html=1;" edge="1" parent="1" source="jx--1_HKr8451Tq5J7Lc-61" target="jx--1_HKr8451Tq5J7Lc-74">
          <mxGeometry relative="1" as="geometry" />
        </mxCell>
        <mxCell id="jx--1_HKr8451Tq5J7Lc-81" style="edgeStyle=orthogonalEdgeStyle;rounded=0;orthogonalLoop=1;jettySize=auto;html=1;" edge="1" parent="1" source="jx--1_HKr8451Tq5J7Lc-61" target="jx--1_HKr8451Tq5J7Lc-75">
          <mxGeometry relative="1" as="geometry" />
        </mxCell>
        <mxCell id="jx--1_HKr8451Tq5J7Lc-82" style="edgeStyle=orthogonalEdgeStyle;rounded=0;orthogonalLoop=1;jettySize=auto;html=1;exitX=0.5;exitY=1;exitDx=0;exitDy=0;" edge="1" parent="1" source="jx--1_HKr8451Tq5J7Lc-61" target="jx--1_HKr8451Tq5J7Lc-76">
          <mxGeometry relative="1" as="geometry" />
        </mxCell>
        <mxCell id="jx--1_HKr8451Tq5J7Lc-83" style="edgeStyle=orthogonalEdgeStyle;rounded=0;orthogonalLoop=1;jettySize=auto;html=1;exitX=0.5;exitY=1;exitDx=0;exitDy=0;entryX=0.5;entryY=0;entryDx=0;entryDy=0;" edge="1" parent="1" source="jx--1_HKr8451Tq5J7Lc-61" target="jx--1_HKr8451Tq5J7Lc-77">
          <mxGeometry relative="1" as="geometry" />
        </mxCell>
        <mxCell id="jx--1_HKr8451Tq5J7Lc-84" style="edgeStyle=orthogonalEdgeStyle;rounded=0;orthogonalLoop=1;jettySize=auto;html=1;exitX=0.5;exitY=1;exitDx=0;exitDy=0;" edge="1" parent="1" source="jx--1_HKr8451Tq5J7Lc-61" target="jx--1_HKr8451Tq5J7Lc-78">
          <mxGeometry relative="1" as="geometry" />
        </mxCell>
        <mxCell id="jx--1_HKr8451Tq5J7Lc-85" style="edgeStyle=orthogonalEdgeStyle;rounded=0;orthogonalLoop=1;jettySize=auto;html=1;exitX=0.5;exitY=1;exitDx=0;exitDy=0;" edge="1" parent="1" source="jx--1_HKr8451Tq5J7Lc-61" target="jx--1_HKr8451Tq5J7Lc-79">
          <mxGeometry relative="1" as="geometry" />
        </mxCell>
        <mxCell id="jx--1_HKr8451Tq5J7Lc-61" value="移动端" style="rounded=0;whiteSpace=wrap;html=1;fillColor=#1ba1e2;fontColor=#000000;strokeColor=#006EAF;fontSize=20;" vertex="1" parent="1">
          <mxGeometry x="50" y="910" width="300" height="45" as="geometry" />
        </mxCell>
        <mxCell id="jx--1_HKr8451Tq5J7Lc-86" style="edgeStyle=orthogonalEdgeStyle;rounded=0;orthogonalLoop=1;jettySize=auto;html=1;" edge="1" parent="1" source="jx--1_HKr8451Tq5J7Lc-62" target="jx--1_HKr8451Tq5J7Lc-66">
          <mxGeometry relative="1" as="geometry" />
        </mxCell>
        <mxCell id="jx--1_HKr8451Tq5J7Lc-87" style="edgeStyle=orthogonalEdgeStyle;rounded=0;orthogonalLoop=1;jettySize=auto;html=1;" edge="1" parent="1" source="jx--1_HKr8451Tq5J7Lc-62" target="jx--1_HKr8451Tq5J7Lc-67">
          <mxGeometry relative="1" as="geometry" />
        </mxCell>
        <mxCell id="jx--1_HKr8451Tq5J7Lc-88" style="edgeStyle=orthogonalEdgeStyle;rounded=0;orthogonalLoop=1;jettySize=auto;html=1;entryX=0.5;entryY=0;entryDx=0;entryDy=0;" edge="1" parent="1" source="jx--1_HKr8451Tq5J7Lc-62" target="jx--1_HKr8451Tq5J7Lc-68">
          <mxGeometry relative="1" as="geometry" />
        </mxCell>
        <mxCell id="jx--1_HKr8451Tq5J7Lc-89" style="edgeStyle=orthogonalEdgeStyle;rounded=0;orthogonalLoop=1;jettySize=auto;html=1;exitX=0.5;exitY=1;exitDx=0;exitDy=0;" edge="1" parent="1" source="jx--1_HKr8451Tq5J7Lc-62" target="jx--1_HKr8451Tq5J7Lc-69">
          <mxGeometry relative="1" as="geometry" />
        </mxCell>
        <mxCell id="jx--1_HKr8451Tq5J7Lc-90" style="edgeStyle=orthogonalEdgeStyle;rounded=0;orthogonalLoop=1;jettySize=auto;html=1;exitX=0.5;exitY=1;exitDx=0;exitDy=0;" edge="1" parent="1" source="jx--1_HKr8451Tq5J7Lc-62" target="jx--1_HKr8451Tq5J7Lc-70">
          <mxGeometry relative="1" as="geometry" />
        </mxCell>
        <mxCell id="jx--1_HKr8451Tq5J7Lc-91" style="edgeStyle=orthogonalEdgeStyle;rounded=0;orthogonalLoop=1;jettySize=auto;html=1;exitX=0.5;exitY=1;exitDx=0;exitDy=0;entryX=0.5;entryY=0;entryDx=0;entryDy=0;" edge="1" parent="1" source="jx--1_HKr8451Tq5J7Lc-62" target="jx--1_HKr8451Tq5J7Lc-71">
          <mxGeometry relative="1" as="geometry" />
        </mxCell>
        <mxCell id="jx--1_HKr8451Tq5J7Lc-62" value="PC端" style="rounded=0;whiteSpace=wrap;html=1;fillColor=#1ba1e2;fontColor=#000000;strokeColor=#006EAF;fontSize=20;" vertex="1" parent="1">
          <mxGeometry x="390" y="910" width="290" height="45" as="geometry" />
        </mxCell>
        <mxCell id="jx--1_HKr8451Tq5J7Lc-66" value="首页" style="rounded=0;whiteSpace=wrap;html=1;fillColor=#1ba1e2;fontColor=#000000;strokeColor=#006EAF;fontSize=20;" vertex="1" parent="1">
          <mxGeometry x="390" y="1010" width="40" height="170" as="geometry" />
        </mxCell>
        <mxCell id="jx--1_HKr8451Tq5J7Lc-67" value="监控告警" style="rounded=0;whiteSpace=wrap;html=1;fillColor=#1ba1e2;fontColor=#000000;strokeColor=#006EAF;fontSize=20;" vertex="1" parent="1">
          <mxGeometry x="440" y="1010" width="40" height="170" as="geometry" />
        </mxCell>
        <mxCell id="jx--1_HKr8451Tq5J7Lc-68" value="设备管理与检修" style="rounded=0;whiteSpace=wrap;html=1;fillColor=#1ba1e2;fontColor=#000000;strokeColor=#006EAF;fontSize=20;" vertex="1" parent="1">
          <mxGeometry x="490" y="1010" width="40" height="170" as="geometry" />
        </mxCell>
        <mxCell id="jx--1_HKr8451Tq5J7Lc-69" value="工单管理" style="rounded=0;whiteSpace=wrap;html=1;fillColor=#1ba1e2;fontColor=#000000;strokeColor=#006EAF;fontSize=20;" vertex="1" parent="1">
          <mxGeometry x="540" y="1010" width="40" height="170" as="geometry" />
        </mxCell>
        <mxCell id="jx--1_HKr8451Tq5J7Lc-70" value="数智助手" style="rounded=0;whiteSpace=wrap;html=1;fillColor=#1ba1e2;fontColor=#000000;strokeColor=#006EAF;fontSize=20;" vertex="1" parent="1">
          <mxGeometry x="590" y="1010" width="40" height="170" as="geometry" />
        </mxCell>
        <mxCell id="jx--1_HKr8451Tq5J7Lc-71" value="系统配置" style="rounded=0;whiteSpace=wrap;html=1;fillColor=#1ba1e2;fontColor=#000000;strokeColor=#006EAF;fontSize=20;" vertex="1" parent="1">
          <mxGeometry x="645" y="1010" width="40" height="170" as="geometry" />
        </mxCell>
        <mxCell id="jx--1_HKr8451Tq5J7Lc-74" value="首页" style="rounded=0;whiteSpace=wrap;html=1;fillColor=#1ba1e2;fontColor=#000000;strokeColor=#006EAF;fontSize=20;" vertex="1" parent="1">
          <mxGeometry x="55" y="1010" width="40" height="170" as="geometry" />
        </mxCell>
        <mxCell id="jx--1_HKr8451Tq5J7Lc-75" value="专业视图" style="rounded=0;whiteSpace=wrap;html=1;fillColor=#1ba1e2;fontColor=#000000;strokeColor=#006EAF;fontSize=20;" vertex="1" parent="1">
          <mxGeometry x="105" y="1010" width="40" height="170" as="geometry" />
        </mxCell>
        <mxCell id="jx--1_HKr8451Tq5J7Lc-76" value="报表报告" style="rounded=0;whiteSpace=wrap;html=1;fillColor=#1ba1e2;fontColor=#000000;strokeColor=#006EAF;fontSize=20;" vertex="1" parent="1">
          <mxGeometry x="155" y="1010" width="40" height="170" as="geometry" />
        </mxCell>
        <mxCell id="jx--1_HKr8451Tq5J7Lc-77" value="移动巡检" style="rounded=0;whiteSpace=wrap;html=1;fillColor=#1ba1e2;fontColor=#000000;strokeColor=#006EAF;fontSize=20;" vertex="1" parent="1">
          <mxGeometry x="205" y="1010" width="40" height="170" as="geometry" />
        </mxCell>
        <mxCell id="jx--1_HKr8451Tq5J7Lc-78" value="移动维护" style="rounded=0;whiteSpace=wrap;html=1;fillColor=#1ba1e2;fontColor=#000000;strokeColor=#006EAF;fontSize=20;" vertex="1" parent="1">
          <mxGeometry x="255" y="1010" width="40" height="170" as="geometry" />
        </mxCell>
        <mxCell id="jx--1_HKr8451Tq5J7Lc-79" value="移动维修" style="rounded=0;whiteSpace=wrap;html=1;fillColor=#1ba1e2;fontColor=#000000;strokeColor=#006EAF;fontSize=20;" vertex="1" parent="1">
          <mxGeometry x="310" y="1010" width="40" height="170" as="geometry" />
        </mxCell>
        <mxCell id="jx--1_HKr8451Tq5J7Lc-92" value="" style="rounded=0;whiteSpace=wrap;html=1;fillColor=#B6C3D4;strokeColor=#6c8ebf;fontColor=#000000;fontSize=18;" vertex="1" parent="1">
          <mxGeometry x="830" y="740" width="410" height="130" as="geometry" />
        </mxCell>
        <mxCell id="jx--1_HKr8451Tq5J7Lc-93" value="H5 移动端" style="rounded=0;whiteSpace=wrap;html=1;fillColor=#1ba1e2;fontColor=#000000;strokeColor=#006EAF;fontSize=18;" vertex="1" parent="1">
          <mxGeometry x="900" y="782.5" width="120" height="45" as="geometry" />
        </mxCell>
        <mxCell id="jx--1_HKr8451Tq5J7Lc-94" value="&lt;span style=&quot;font-size: 26px;&quot;&gt;客户端&lt;/span&gt;" style="rounded=0;whiteSpace=wrap;html=1;fillColor=#09384F;fontColor=#FFFFFF;" vertex="1" parent="1">
          <mxGeometry x="810" y="740" width="50" height="130" as="geometry" />
        </mxCell>
        <mxCell id="jx--1_HKr8451Tq5J7Lc-95" value="" style="rounded=0;whiteSpace=wrap;html=1;fillColor=#B6C3D4;strokeColor=#6c8ebf;fontColor=#000000;fontSize=18;" vertex="1" parent="1">
          <mxGeometry x="830" y="920" width="410" height="130" as="geometry" />
        </mxCell>
        <mxCell id="jx--1_HKr8451Tq5J7Lc-96" value="nginx" style="rounded=0;whiteSpace=wrap;html=1;fillColor=#1ba1e2;fontColor=#000000;strokeColor=#006EAF;fontSize=18;" vertex="1" parent="1">
          <mxGeometry x="950" y="927.5" width="170" height="45" as="geometry" />
        </mxCell>
        <mxCell id="jx--1_HKr8451Tq5J7Lc-97" value="&lt;font style=&quot;font-size: 26px;&quot;&gt;接口服务&lt;/font&gt;" style="rounded=0;whiteSpace=wrap;html=1;fillColor=#09384F;fontColor=#FFFFFF;" vertex="1" parent="1">
          <mxGeometry x="810" y="920" width="50" height="130" as="geometry" />
        </mxCell>
        <mxCell id="jx--1_HKr8451Tq5J7Lc-98" value="springboot" style="rounded=0;whiteSpace=wrap;html=1;fillColor=#1ba1e2;fontColor=#000000;strokeColor=#006EAF;fontSize=18;" vertex="1" parent="1">
          <mxGeometry x="950" y="1000" width="170" height="45" as="geometry" />
        </mxCell>
        <mxCell id="jx--1_HKr8451Tq5J7Lc-99" value="" style="rounded=0;whiteSpace=wrap;html=1;fillColor=#B6C3D4;strokeColor=#6c8ebf;fontColor=#000000;fontSize=18;" vertex="1" parent="1">
          <mxGeometry x="830" y="1100" width="410" height="130" as="geometry" />
        </mxCell>
        <mxCell id="jx--1_HKr8451Tq5J7Lc-100" value="&lt;font style=&quot;font-size: 26px;&quot;&gt;数据存储&lt;/font&gt;" style="rounded=0;whiteSpace=wrap;html=1;fillColor=#09384F;fontColor=#FFFFFF;" vertex="1" parent="1">
          <mxGeometry x="810" y="1100" width="50" height="130" as="geometry" />
        </mxCell>
        <mxCell id="jx--1_HKr8451Tq5J7Lc-101" value="MySQL" style="rounded=0;whiteSpace=wrap;html=1;fillColor=#1ba1e2;fontColor=#000000;strokeColor=#006EAF;fontSize=18;" vertex="1" parent="1">
          <mxGeometry x="890" y="1142.5" width="60" height="45" as="geometry" />
        </mxCell>
        <mxCell id="jx--1_HKr8451Tq5J7Lc-102" value="" style="shape=flexArrow;endArrow=classic;html=1;rounded=0;fillColor=#d5e8d4;strokeColor=#82b366;fontColor=#000000;fontSize=18;" edge="1" parent="1">
          <mxGeometry width="50" height="50" relative="1" as="geometry">
            <mxPoint x="1034.5" y="920" as="sourcePoint" />
            <mxPoint x="1034.5" y="870" as="targetPoint" />
          </mxGeometry>
        </mxCell>
        <mxCell id="jx--1_HKr8451Tq5J7Lc-103" value="" style="shape=flexArrow;endArrow=classic;html=1;rounded=0;fillColor=#d5e8d4;strokeColor=#82b366;fontColor=#000000;fontSize=18;" edge="1" parent="1">
          <mxGeometry width="50" height="50" relative="1" as="geometry">
            <mxPoint x="1034.5" y="1000" as="sourcePoint" />
            <mxPoint x="1034.5" y="970" as="targetPoint" />
          </mxGeometry>
        </mxCell>
        <mxCell id="jx--1_HKr8451Tq5J7Lc-104" value="" style="shape=flexArrow;endArrow=classic;html=1;rounded=0;fillColor=#d5e8d4;strokeColor=#82b366;fontColor=#000000;fontSize=18;" edge="1" parent="1">
          <mxGeometry width="50" height="50" relative="1" as="geometry">
            <mxPoint x="1034.5" y="1100" as="sourcePoint" />
            <mxPoint x="1034.5" y="1050" as="targetPoint" />
          </mxGeometry>
        </mxCell>
        <mxCell id="jx--1_HKr8451Tq5J7Lc-118" value="VUE PC端" style="rounded=0;whiteSpace=wrap;html=1;fillColor=#1ba1e2;fontColor=#000000;strokeColor=#006EAF;fontSize=18;" vertex="1" parent="1">
          <mxGeometry x="1050" y="782.5" width="120" height="45" as="geometry" />
        </mxCell>
        <mxCell id="jx--1_HKr8451Tq5J7Lc-119" value="redis" style="rounded=0;whiteSpace=wrap;html=1;fillColor=#1ba1e2;fontColor=#000000;strokeColor=#006EAF;fontSize=18;" vertex="1" parent="1">
          <mxGeometry x="1005" y="1142.5" width="60" height="45" as="geometry" />
        </mxCell>
        <mxCell id="jx--1_HKr8451Tq5J7Lc-120" value="minio" style="rounded=0;whiteSpace=wrap;html=1;fillColor=#1ba1e2;fontColor=#000000;strokeColor=#006EAF;fontSize=18;" vertex="1" parent="1">
          <mxGeometry x="1120" y="1142.5" width="60" height="45" as="geometry" />
        </mxCell>
        <mxCell id="jx--1_HKr8451Tq5J7Lc-121" value="" style="rounded=0;whiteSpace=wrap;html=1;fillColor=#B6C3D4;strokeColor=#6c8ebf;fontColor=#000000;fontSize=18;" vertex="1" parent="1">
          <mxGeometry x="830" y="1280" width="410" height="130" as="geometry" />
        </mxCell>
        <mxCell id="jx--1_HKr8451Tq5J7Lc-122" value="&lt;font style=&quot;font-size: 26px;&quot;&gt;数据源&lt;/font&gt;" style="rounded=0;whiteSpace=wrap;html=1;fillColor=#09384F;fontColor=#FFFFFF;" vertex="1" parent="1">
          <mxGeometry x="810" y="1280" width="50" height="130" as="geometry" />
        </mxCell>
        <mxCell id="jx--1_HKr8451Tq5J7Lc-124" value="MLC系统 ORACLE" style="rounded=0;whiteSpace=wrap;html=1;fillColor=#1ba1e2;fontColor=#000000;strokeColor=#006EAF;fontSize=18;" vertex="1" parent="1">
          <mxGeometry x="952.5" y="1322.5" width="165" height="45" as="geometry" />
        </mxCell>
        <mxCell id="jx--1_HKr8451Tq5J7Lc-126" value="" style="shape=flexArrow;endArrow=classic;html=1;rounded=0;fillColor=#d5e8d4;strokeColor=#82b366;fontColor=#000000;fontSize=18;" edge="1" parent="1">
          <mxGeometry width="50" height="50" relative="1" as="geometry">
            <mxPoint x="1034.5" y="1280" as="sourcePoint" />
            <mxPoint x="1034.5" y="1230" as="targetPoint" />
          </mxGeometry>
        </mxCell>
      </root>
    </mxGraphModel>
  </diagram>
</mxfile>
